<svg xmlns="http://www.w3.org/2000/svg" version="1.1" xmlns:xlink="http://www.w3.org/1999/xlink" xmlns:svgjs="http://svgjs.dev/svgjs" width="1000" height="1000" viewBox="0 0 1000 1000"><rect width="1000" height="1000" fill="#ffffff"></rect><g transform="matrix(0.7,0,0,0.7,149.57575757575756,282.1265587044535)"><svg viewBox="0 0 396 247" data-background-color="#883d1a" preserveAspectRatio="xMidYMid meet" height="623" width="1000" xmlns="http://www.w3.org/2000/svg" xmlns:xlink="http://www.w3.org/1999/xlink"><defs></defs><g id="tight-bounds" transform="matrix(1,0,0,1,0.2400000000000091,-0.09999999999999432)"><svg viewBox="0 0 395.52 247.2" height="247.2" width="395.52"><g><svg></svg></g><g><svg viewBox="0 0 395.52 247.2" height="247.2" width="395.52"><g transform="matrix(3.139966545560985, 0, 0, 3.139966545560985, 41.339420625235135, 1)"><svg xmlns="http://www.w3.org/2000/svg" xmlns:xlink="http://www.w3.org/1999/xlink" version="1.1" x="0" y="0" viewBox="0 0 99.63200378417969 78.09000396728516" enable-background="new 0 0 99.633 78.09" xml:space="preserve" width="99.63200378417969" height="78.09000396728516" class="icon-none" data-fill-palette-color="accent" id="none"><g fill="#ffffff" data-fill-palette-color="accent"><path d="M96.941 0H2.693C1.205 0 0 1.206 0 2.693v56.548c0 1.489 1.205 2.694 2.693 2.694h43.085v10.771h-8.079c-1.488 0-2.693 1.204-2.693 2.692 0 1.485 1.205 2.692 2.693 2.692h21.542c1.488 0 2.692-1.207 2.692-2.692 0-1.488-1.204-2.692-2.692-2.692h-8.078V61.935h45.777c1.488 0 2.692-1.205 2.692-2.694V2.693C99.633 1.206 98.429 0 96.941 0zM94.248 56.548H5.386V5.385h88.861V56.548z" fill="#000000" data-fill-palette-color="accent"></path><path d="M43.264 41.276c0.063 0.177 0.155 0.33 0.25 0.488 0.063 0.101 0.084 0.217 0.16 0.311 0.029 0.037 0.074 0.048 0.105 0.082 0.19 0.212 0.413 0.376 0.66 0.521 0.084 0.05 0.153 0.123 0.24 0.163 0.336 0.15 0.705 0.244 1.099 0.244l0 0c0.002 0 0.002 0 0.002 0 0.327 0 0.65-0.073 0.963-0.194 0.116-0.045 0.213-0.116 0.321-0.176 0.131-0.074 0.273-0.121 0.396-0.219l10.771-8.619c0.092-0.074 0.14-0.177 0.219-0.26 0.06-0.064 0.145-0.09 0.202-0.161 0.052-0.066 0.065-0.146 0.11-0.214 0.103-0.154 0.179-0.311 0.247-0.48 0.063-0.159 0.118-0.314 0.149-0.48 0.032-0.17 0.04-0.333 0.043-0.507-0.003-0.173-0.011-0.336-0.043-0.507-0.031-0.166-0.086-0.321-0.149-0.48-0.068-0.169-0.145-0.326-0.247-0.479-0.045-0.069-0.059-0.149-0.11-0.215-0.066-0.08-0.158-0.119-0.229-0.19-0.07-0.072-0.109-0.166-0.191-0.23L47.46 21.054c-0.095-0.074-0.208-0.097-0.308-0.157-0.161-0.099-0.313-0.192-0.494-0.256-0.177-0.062-0.353-0.083-0.537-0.107-0.118-0.016-0.221-0.07-0.344-0.07-0.053 0-0.095 0.026-0.147 0.031-0.182 0.009-0.352 0.059-0.529 0.106-0.168 0.044-0.333 0.078-0.486 0.153-0.143 0.066-0.261 0.168-0.39 0.26-0.158 0.114-0.311 0.222-0.439 0.368-0.034 0.037-0.082 0.054-0.113 0.093-0.076 0.095-0.097 0.209-0.16 0.311-0.095 0.158-0.187 0.31-0.25 0.487-0.063 0.181-0.086 0.361-0.11 0.548-0.016 0.114-0.068 0.217-0.068 0.336v17.235c0 0.119 0.053 0.223 0.068 0.337C43.177 40.915 43.201 41.095 43.264 41.276zM48.47 28.761l3.769 3.014-3.769 3.014V28.761z" fill="#000000" data-fill-palette-color="accent"></path></g></svg></g><rect width="348.05760000000004" height="43.51105642223091" fill="#883d1a" y="101.84447178888453" x="23.731199999999973" data-fill-palette-color="quaternary"></rect><g transform="matrix(1,0,0,1,39.55199999999999,108.82195519816197)"><svg viewBox="0 0 316.416 29.55608960367605" height="29.55608960367605" width="316.416"><g><svg viewBox="0 0 316.416 29.55608960367605" height="29.55608960367605" width="316.416"><g><svg viewBox="0 0 316.416 29.55608960367605" height="29.55608960367605" width="316.416"><g><svg viewBox="0 0 316.416 29.55608960367605" height="29.55608960367605" width="316.416"><g><svg viewBox="0 0 316.416 29.55608960367605" height="29.55608960367605" width="316.416"><g transform="matrix(1,0,0,1,0,0)"><svg width="316.416" viewBox="1.1200000047683716 -31.100000381469727 340.010009765625 31.760000228881836" height="29.55608960367605" data-palette-color="#ffffff"><path d="M12.65 0Q17.38 0 20.29-1.28 23.19-2.56 24.43-4.64 25.66-6.71 25.66-9.28L25.66-9.28Q25.66-10.96 24.78-12.56 23.9-14.16 22.19-15.22 20.48-16.28 18.09-16.41L18.09-16.41 18.09-16.58Q20.56-17.7 21.84-19.53 23.12-21.36 23.12-23.61L23.12-23.61Q23.12-25.54 22-27.14 20.87-28.74 18.58-29.71 16.28-30.69 12.94-30.69L12.94-30.69Q10.4-30.69 8.18-30.46 5.96-30.22 2.86-29.76L2.86-29.76 1.51-29.57 1.29-28.2 5.47-27.56 5.47-2.34 1.37-1.42 1.12 0 12.65 0ZM9.06-28.96Q9.84-29.1 11.5-29.1L11.5-29.1Q15.55-29.1 17.57-27.31 19.58-25.51 19.58-22.51L19.58-22.51Q19.58-20.51 18.58-19.03 17.58-17.55 15.99-16.72L15.99-16.72 9.06-16.72 9.06-28.96ZM9.06-15.09L14.89-15.09Q17.31-15.09 18.91-14.11 20.51-13.13 21.24-11.62 21.97-10.11 21.97-8.47L21.97-8.47Q21.97-6.71 21.23-5.21 20.48-3.71 18.85-2.77 17.21-1.83 14.72-1.83L14.72-1.83 9.06-1.83 9.06-15.09ZM27.9 0L38.5 0 38.74-1.54 34.23-2.32 37.42-11.11 47.8-11.11 50.83-2.47 46.7-1.42 46.46 0 57.74 0 57.93-1.56 54.64-2.32 44.82-30.96 42.33-30.42 31.64-2.47 28.1-1.42 27.9 0ZM38.11-13.04L42.82-25.88 47.21-13.04 38.11-13.04ZM60.35-1.73L60.52 0 83 0 84.17-8.2 82.49-8.47 79.68-1.93 64.59-1.93 83.76-29 83.71-30.37 61.66-30.37 61.45-22.41 63.01-22.05 64.91-28.56 79.24-28.56 60.35-1.73ZM86.39 0L96.99 0 97.23-1.54 92.72-2.32 95.92-11.11 106.29-11.11 109.32-2.47 105.19-1.42 104.95 0 116.23 0 116.42-1.56 113.13-2.32 103.31-30.96 100.82-30.42 90.13-2.47 86.59-1.42 86.39 0ZM96.6-13.04L101.31-25.88 105.71-13.04 96.6-13.04ZM126.53-28.93L130.9-28.1 130.9-2.34 126.77-1.42 126.65 0 140.1 0 140.39-1.66 134.51-2.34 134.53-14.14 141.88-14.14 142.47-9.55 144.15-9.81 144.86-19.34 143.13-19.09 142.13-15.92 134.53-15.92 134.53-28.64 146.67-28.64 147.35-22.78 149.01-22.53 149.91-30.37 126.72-30.37 126.53-28.93ZM152.18-28.98L156.5-28.17 156.5-2.34 152.55-1.42 152.38 0 164.51 0 164.76-1.54 160.19-2.2 160.19-28.22 164.39-28.98 164.61-30.37 152.38-30.37 152.18-28.98ZM167.32 0L190.41 0 191.24-8.08 189.68-8.33 187.12-1.83 175.23-1.83 175.23-28.13 179.5-28.96 179.67-30.37 167.41-30.37 167.19-28.96 171.59-28.03 171.59-2.34 167.51-1.42 167.32 0ZM193.44 0L204.35 0 204.59-1.46 200.13-2.1 201.86-25.85 211.04-1 213.21-1.34 223.54-26.54 224.93-2.25 220.81-1.32 220.61 0 232.79 0 232.94-1.46 228.52-2.1 227.2-28.17 231.38-29 231.55-30.37 222.76-30.37 221.12-26.66 212.97-6.54 205.96-25.71 204.13-30.37 195.34-30.37 195.12-29 199.61-28.1 197.73-2.25 193.63-1.32 193.44 0ZM248.76 0.66Q253.54 0.66 256.97-1.59 260.4-3.83 262.14-7.48 263.87-11.13 263.87-15.23L263.87-15.23Q263.87-19.68 262.28-23.29 260.7-26.9 257.67-29 254.64-31.1 250.47-31.1L250.47-31.1Q245.9-31.1 242.47-29.09 239.04-27.08 237.2-23.45 235.35-19.82 235.35-15.14L235.35-15.14Q235.35-10.79 237.04-7.18 238.72-3.56 241.77-1.45 244.83 0.66 248.76 0.66L248.76 0.66ZM249.27-29.22Q252.64-29.22 255.02-27.16 257.4-25.1 258.61-21.63 259.82-18.16 259.82-14.01L259.82-14.01Q259.82-10.82 258.8-7.95 257.79-5.08 255.57-3.25 253.35-1.42 249.93-1.42L249.93-1.42Q246.51-1.42 244.14-3.45 241.77-5.49 240.6-8.94 239.43-12.38 239.43-16.55L239.43-16.55Q239.43-19.97 240.42-22.83 241.41-25.68 243.62-27.45 245.83-29.22 249.27-29.22L249.27-29.22ZM266.11-29L269.31-28.15 277.39 0.59 280.25 0.1 287.33-23.71 293.8 0.61 296.46 0.1 305.74-28.17 308.67-29 308.86-30.37 298.68-30.37 298.49-29.03 302.98-28.1 295.85-5.69 289.35-29.64 286.64-29.27 279.56-5.49 273.12-28.22 277.17-29.05 277.39-30.37 266.31-30.37 266.11-29ZM311.11 0L321.7 0 321.95-1.54 317.43-2.32 320.63-11.11 331-11.11 334.03-2.47 329.9-1.42 329.66 0 340.94 0 341.13-1.56 337.84-2.32 328.02-30.96 325.53-30.42 314.84-2.47 311.3-1.42 311.11 0ZM321.31-13.04L326.02-25.88 330.42-13.04 321.31-13.04Z" opacity="1" transform="matrix(1,0,0,1,0,0)" fill="#000000" class="undefined-text-0" data-fill-palette-color="primary" id="text-0"></path></svg></g></svg></g></svg></g></svg></g></svg></g></svg></g></svg></g></svg><rect width="395.52" height="247.2" fill="none" stroke="none" visibility="hidden"></rect></g></svg></g></svg>